<svg xmlns="http://www.w3.org/2000/svg" viewBox="0 0 830.82 178.38"><path d="M728.5,178.38h94.3A8,8,0,0,0,828.74,165l-63-69.85a8,8,0,0,1,0-10.71l63-69.86A8,8,0,0,0,822.8,1.25H728.5a30,30,0,0,0-22.7,10.39l-63,72.94a8,8,0,0,0,0,10.46l63,73A30,30,0,0,0,728.5,178.38Z" style="fill:#2e59a4"/><path d="M104.07,0h90a8,8,0,0,1,7.13,11.63L181.22,51a8,8,0,0,1-7.13,4.37H57.51l19.82-39A30,30,0,0,1,104.07,0Z" style="fill:#2e59a4"/><path d="M54.39,61.5H127a30,30,0,0,1,26.75,43.6l-6,11.77H75.15A30,30,0,0,1,48.41,73.28Z" style="fill:#2e59a4"/><path d="M28,123H144.6l-19.81,39A30,30,0,0,1,98,178.38H8A8,8,0,0,1,.88,166.75l20-39.37A8,8,0,0,1,28,123Z" style="fill:#2e59a4"/><path d="M145.52,134.78l6-11.77H279.86l-19.81,39a30,30,0,0,1-26.74,16.4H172.26A30,30,0,0,1,145.52,134.78Z" style="fill:#2e59a4"/><path d="M154.62,116.87l19.82-39A30,30,0,0,1,201.18,61.5h61.05A30,30,0,0,1,289,105.1l-6,11.77Z" style="fill:#2e59a4"/><path d="M483.67,134.78l6-11.77H618L598.2,162a30,30,0,0,1-26.74,16.4H510.41A30,30,0,0,1,483.67,134.78Z" style="fill:#2e59a4"/><path d="M492.78,116.87l19.81-39A30,30,0,0,1,539.33,61.5h61a30,30,0,0,1,26.74,43.6l-6,11.77Z" style="fill:#2e59a4"/><path d="M321.16,55.37,341,16.4A30,30,0,0,1,367.72,0h96.91a8,8,0,0,1,7.13,11.63L457.86,39a30,30,0,0,1-26.74,16.4Z" style="fill:#2e59a4"/><path d="M264.47,166.78,317.59,61.5H433.36a8,8,0,0,1,7.13,11.63l-13.9,27.34a30,30,0,0,1-26.74,16.4H369a30,30,0,0,0-26.74,16.41L321.58,174a8,8,0,0,1-7.13,4.37H271.61A8,8,0,0,1,264.47,166.78Z" style="fill:#2e59a4"/><path d="M406.92,178.38h29.3A30,30,0,0,0,463,162L539.41,11.63A8,8,0,0,0,532.28,0H503a30,30,0,0,0-26.74,16.4L399.79,166.75A8,8,0,0,0,406.92,178.38Z" style="fill:#2e59a4"/></svg>